<?xml version="1.0" encoding="UTF-8"?>
<svg width="18px" height="12px" viewBox="0 0 18 12" version="1.1" xmlns="http://www.w3.org/2000/svg" xmlns:xlink="http://www.w3.org/1999/xlink">
    <!-- Generator: Sketch 51.1 (57501) - http://www.bohemiancoding.com/sketch -->
    <title>ic-youtube-over</title>
    <desc>Created with Sketch.</desc>
    <defs>
        <path d="M32,16 C32,7.164 24.837,0 16,0 C7.163,0 0,7.164 0,16 C0,24.836 7.163,32 16,32 C24.837,32 32,24.836 32,16 Z" id="path-1"></path>
    </defs>
    <g id="Page-1" stroke="none" stroke-width="1" fill="none" fill-rule="evenodd">
        <g id="ic-youtube-over" transform="translate(-8.000000, -10.000000)">
            <g id="Clipped">
                <g id="Shape-Clipped">
                    <mask id="mask-2" fill="white">
                        <use xlink:href="#path-1"></use>
                    </mask>
                    <g id="path-1"></g>
                    <path d="M25.008,19.012 L25.008,12.931 C25.008,12.931 25.008,10 22.076,10 L10.93,10 C10.93,10 8,10 8,12.931 L8,19.012 C8,19.012 8,21.943 10.93,21.943 L22.076,21.943 C22.076,21.943 25.008,21.943 25.008,19.012 Z M19.806,15.98 L14.237,19.25 L14.237,12.709 L19.806,15.98 Z" id="Shape" fill="#FFFFFF" fill-rule="nonzero" mask="url(#mask-2)"></path>
                </g>
            </g>
        </g>
    </g>
</svg>