<?xml version="1.0" encoding="UTF-8"?>
<svg width="17px" height="14px" viewBox="0 0 17 14" version="1.1" xmlns="http://www.w3.org/2000/svg" xmlns:xlink="http://www.w3.org/1999/xlink">
    <!-- Generator: Sketch 51.1 (57501) - http://www.bohemiancoding.com/sketch -->
    <title>icon_footer_twitter-over</title>
    <desc>Created with Sketch.</desc>
    <defs>
        <path d="M32,16 C32,7.165 24.836,0 16,0 C7.163,0 0,7.165 0,16 C0,24.837 7.163,32 16,32 C24.836,32 32,24.837 32,16 Z" id="path-1"></path>
    </defs>
    <g id="Page-1" stroke="none" stroke-width="1" fill="none" fill-rule="evenodd">
        <g id="icon_footer_twitter-over" transform="translate(-8.000000, -10.000000)">
            <g id="Clipped">
                <g id="Shape-Clipped">
                    <mask id="mask-2" fill="white">
                        <use xlink:href="#path-1"></use>
                    </mask>
                    <g id="path-1"></g>
                    <path d="M23.03,12.189 C23.7600544,11.7529219 24.3061348,11.0656997 24.566,10.256 C23.8800199,10.6634952 23.1290791,10.9500027 22.346,11.103 C21.2643233,9.94597398 19.5397774,9.66101206 18.1433903,10.4085657 C16.7470031,11.1561194 16.0279077,12.749281 16.391,14.291 C13.5801089,14.1505048 10.9610966,12.8230055 9.186,10.639 C8.25549707,12.235981 8.72970507,14.2813865 10.268,15.306 C9.71285089,15.2886321 9.16984075,15.1391671 8.684,14.87 L8.684,14.913 C8.68401431,16.5774037 9.85743208,18.0110232 11.489,18.34 C11.1887024,18.4227978 10.8785007,18.4641805 10.567,18.463 C10.3465248,18.463313 10.1265245,18.4425519 9.91,18.401 C10.3669289,19.8251206 11.6796069,20.8004827 13.175,20.827 C11.9369935,21.7990068 10.4079924,22.326285 8.834,22.324 C8.552,22.324 8.273,22.308 8,22.276 C9.59857174,23.3021343 11.4584258,23.8471083 13.358,23.846 C19.788,23.846 23.303,18.52 23.303,13.901 C23.303,13.749 23.3,13.597 23.293,13.449 C23.9774213,12.9542677 24.5680203,12.341318 25.037,11.639 C24.399292,11.921733 23.7227533,12.1071323 23.03,12.189 Z" id="Shape" fill="#FFFFFF" fill-rule="nonzero" mask="url(#mask-2)"></path>
                </g>
            </g>
        </g>
    </g>
</svg>