<?xml version="1.0" encoding="UTF-8"?>
<svg width="15px" height="15px" viewBox="0 0 15 15" version="1.1" xmlns="http://www.w3.org/2000/svg" xmlns:xlink="http://www.w3.org/1999/xlink">
    <!-- Generator: Sketch 51.1 (57501) - http://www.bohemiancoding.com/sketch -->
    <title>icon_footer_instagram-over</title>
    <desc>Created with Sketch.</desc>
    <defs>
        <path d="M16,32 C24.837,32 32,24.836 32,16 C32,7.164 24.837,0 16,0 C7.163,0 0,7.164 0,16 C0,24.836 7.163,32 16,32" id="path-1"></path>
    </defs>
    <g id="Page-1" stroke="none" stroke-width="1" fill="none" fill-rule="evenodd">
        <g id="icon_footer_instagram-over" transform="translate(-9.000000, -8.000000)">
            <g id="Clipped">
                <g id="Shape-Clipped">
                    <mask id="mask-2" fill="white">
                        <use xlink:href="#path-1"></use>
                    </mask>
                    <g id="path-1"></g>
                    <path d="M23.434,8.567 C23.0791459,8.19844553 22.5875737,7.99320147 22.076,8 L10.924,8 C10.397,8 9.944,8.189 9.566,8.567 C9.19,8.944 9,9.397 9,9.924 L9,21.076 C9,21.603 9.189,22.056 9.566,22.434 C9.944,22.811 10.396,23 10.924,23 L22.076,23 C22.603,23 23.056,22.811 23.434,22.434 C23.811,22.056 24,21.604 24,21.076 L24,9.924 C24,9.396 23.811,8.944 23.434,8.567 Z M14.386,13.405 C14.9499881,12.8457384 15.715845,12.537809 16.51,12.551 C17.343,12.551 18.054,12.836 18.644,13.405 C19.233,13.975 19.527,14.663 19.527,15.471 C19.527,16.278 19.233,16.966 18.644,17.536 C18.054,18.106 17.344,18.391 16.51,18.391 C15.7157001,18.403926 14.9498227,18.0956279 14.386,17.536 C13.796,16.966 13.502,16.278 13.502,15.471 C13.502,14.663 13.797,13.975 14.386,13.405 Z M22.301,20.675 C22.301,20.845 22.242,20.987 22.125,21.101 C22.0137115,21.2120742 21.862216,21.2733938 21.705,21.271 L11.265,21.271 C11.1062982,21.2750754 10.9529285,21.2135828 10.841,21.101 C10.7276925,20.989068 10.6657896,20.8352157 10.67,20.676 L10.67,14.348 L12.047,14.348 C11.917,14.758 11.852,15.184 11.852,15.627 C11.852,16.877 12.307,17.943 13.219,18.825 C14.13,19.707 15.227,20.149 16.509,20.149 C17.356,20.149 18.137,19.947 18.854,19.543 C19.5552655,19.1533405 20.1413192,18.5855686 20.553,17.897 C20.97,17.204 21.178,16.447 21.178,15.627 C21.178,15.184 21.113,14.757 20.983,14.347 L22.3,14.347 L22.3,20.676 L22.301,20.675 Z M22.301,11.955 C22.3047732,12.1344205 22.2341991,12.3074175 22.106,12.433 C21.9803488,12.5618228 21.8069143,12.6327897 21.627,12.629 L19.927,12.629 C19.7474308,12.6325113 19.5744119,12.5615664 19.449,12.433 C19.3208009,12.3074175 19.2502268,12.1344205 19.254,11.955 L19.254,10.344 C19.254,10.161 19.319,10.004 19.449,9.87 C19.579,9.737 19.739,9.67 19.928,9.67 L21.627,9.67 C21.816,9.67 21.975,9.737 22.106,9.87 C22.236,10.004 22.301,10.161 22.301,10.344 L22.301,11.955 Z" id="Shape" fill="#FFFFFF" fill-rule="nonzero" mask="url(#mask-2)"></path>
                </g>
            </g>
        </g>
    </g>
</svg>